REM DIRINDEX 1\2,1\3,1\4
REM DIRNAME cjc151,folder01,folder02,folder03
TITLE ""
FILE "015 015_TOEFL_3900.mp3" MP3
  TRACK 01 AUDIO
    TITLE "2:cjc151_0621"
    INDEX 01 00:00:00
  TRACK 02 AUDIO
    TITLE "0:"
    INDEX 01 00:01:56
  TRACK 03 AUDIO
    TITLE "3:cjc151_0622"
    INDEX 01 00:03:33
  TRACK 04 AUDIO
    TITLE "0:"
    INDEX 01 00:07:51
  TRACK 05 AUDIO
    TITLE "2:cjc151_0623"
    INDEX 01 00:09:42
  TRACK 06 AUDIO
    TITLE "0:"
    INDEX 01 00:10:57
  TRACK 07 AUDIO
    TITLE "3:cjc151_0624"
    INDEX 01 00:12:36
  TRACK 08 AUDIO
    TITLE "0:"
    INDEX 01 00:17:10
  TRACK 09 AUDIO
    TITLE "2:cjc151_0625"
    INDEX 01 00:18:64
  TRACK 10 AUDIO
    TITLE "0:"
    INDEX 01 00:19:69
  TRACK 11 AUDIO
    TITLE "3:cjc151_0626"
    INDEX 01 00:21:49
  TRACK 12 AUDIO
    TITLE "0:"
    INDEX 01 00:24:69
  TRACK 13 AUDIO
    TITLE "2:cjc151_0627"
    INDEX 01 00:26:48
  TRACK 14 AUDIO
    TITLE "0:"
    INDEX 01 00:27:59
  TRACK 15 AUDIO
    TITLE "3:cjc151_0628"
    INDEX 01 00:29:38
  TRACK 16 AUDIO
    TITLE "0:"
    INDEX 01 00:32:52
  TRACK 17 AUDIO
    TITLE "2:cjc151_0629"
    INDEX 01 00:34:30
  TRACK 18 AUDIO
    TITLE "0:"
    INDEX 01 00:35:33
  TRACK 19 AUDIO
    TITLE "3:cjc151_0630"
    INDEX 01 00:37:12
  TRACK 20 AUDIO
    TITLE "0:"
    INDEX 01 00:41:06
  TRACK 21 AUDIO
    TITLE "2:cjc151_0631"
    INDEX 01 00:42:61
  TRACK 22 AUDIO
    TITLE "0:"
    INDEX 01 00:44:01
  TRACK 23 AUDIO
    TITLE "3:cjc151_0632"
    INDEX 01 00:45:55
  TRACK 24 AUDIO
    TITLE "0:"
    INDEX 01 00:49:08
  TRACK 25 AUDIO
    TITLE "2:cjc151_0633"
    INDEX 01 00:50:60
  TRACK 26 AUDIO
    TITLE "0:"
    INDEX 01 00:52:08
  TRACK 27 AUDIO
    TITLE "3:cjc151_0634"
    INDEX 01 00:53:60
  TRACK 28 AUDIO
    TITLE "0:"
    INDEX 01 00:57:41
  TRACK 29 AUDIO
    TITLE "2:cjc151_0635"
    INDEX 01 00:59:24
  TRACK 30 AUDIO
    TITLE "0:"
    INDEX 01 01:00:43
  TRACK 31 AUDIO
    TITLE "3:cjc151_0636"
    INDEX 01 01:02:16
  TRACK 32 AUDIO
    TITLE "0:"
    INDEX 01 01:05:73
  TRACK 33 AUDIO
    TITLE "2:cjc151_0637"
    INDEX 01 01:07:53
  TRACK 34 AUDIO
    TITLE "0:"
    INDEX 01 01:08:60
  TRACK 35 AUDIO
    TITLE "3:cjc151_0638"
    INDEX 01 01:10:37
  TRACK 36 AUDIO
    TITLE "0:"
    INDEX 01 01:13:59
  TRACK 37 AUDIO
    TITLE "2:cjc151_0639"
    INDEX 01 01:15:39
  TRACK 38 AUDIO
    TITLE "0:"
    INDEX 01 01:16:52
  TRACK 39 AUDIO
    TITLE "3:cjc151_0640"
    INDEX 01 01:18:31
  TRACK 40 AUDIO
    TITLE "0:"
    INDEX 01 01:22:56
  TRACK 41 AUDIO
    TITLE "2:cjc151_0641"
    INDEX 01 01:24:37
  TRACK 42 AUDIO
    TITLE "0:"
    INDEX 01 01:25:58
  TRACK 43 AUDIO
    TITLE "3:cjc151_0642"
    INDEX 01 01:27:34
  TRACK 44 AUDIO
    TITLE "0:"
    INDEX 01 01:30:66
  TRACK 45 AUDIO
    TITLE "2:cjc151_0643"
    INDEX 01 01:32:43
  TRACK 46 AUDIO
    TITLE "0:"
    INDEX 01 01:33:52
  TRACK 47 AUDIO
    TITLE "3:cjc151_0644"
    INDEX 01 01:35:31
  TRACK 48 AUDIO
    TITLE "0:"
    INDEX 01 01:39:49
  TRACK 49 AUDIO
    TITLE "2:cjc151_0645"
    INDEX 01 01:41:28
  TRACK 50 AUDIO
    TITLE "0:"
    INDEX 01 01:42:35
  TRACK 51 AUDIO
    TITLE "3:cjc151_0646"
    INDEX 01 01:44:13
  TRACK 52 AUDIO
    TITLE "0:"
    INDEX 01 01:48:16
  TRACK 53 AUDIO
    TITLE "2:cjc151_0647"
    INDEX 01 01:49:71
  TRACK 54 AUDIO
    TITLE "0:"
    INDEX 01 01:51:27
  TRACK 55 AUDIO
    TITLE "3:cjc151_0648"
    INDEX 01 01:53:06
  TRACK 56 AUDIO
    TITLE "0:"
    INDEX 01 01:56:53
  TRACK 57 AUDIO
    TITLE "2:cjc151_0649"
    INDEX 01 01:58:32
  TRACK 58 AUDIO
    TITLE "0:"
    INDEX 01 01:59:32
  TRACK 59 AUDIO
    TITLE "3:cjc151_0650"
    INDEX 01 02:01:11
  TRACK 60 AUDIO
    TITLE "0:"
    INDEX 01 02:04:25
  TRACK 61 AUDIO
    TITLE "2:cjc151_0651"
    INDEX 01 02:06:06
  TRACK 62 AUDIO
    TITLE "0:"
    INDEX 01 02:07:22
  TRACK 63 AUDIO
    TITLE "3:cjc151_0652"
    INDEX 01 02:09:01
  TRACK 64 AUDIO
    TITLE "0:"
    INDEX 01 02:13:16
  TRACK 65 AUDIO
    TITLE "2:cjc151_0653"
    INDEX 01 02:14:71
  TRACK 66 AUDIO
    TITLE "0:"
    INDEX 01 02:15:62
  TRACK 67 AUDIO
    TITLE "3:cjc151_0654"
    INDEX 01 02:17:44
  TRACK 68 AUDIO
    TITLE "0:"
    INDEX 01 02:21:02
  TRACK 69 AUDIO
    TITLE "2:cjc151_0655"
    INDEX 01 02:22:58
  TRACK 70 AUDIO
    TITLE "0:"
    INDEX 01 02:23:56
  TRACK 71 AUDIO
    TITLE "3:cjc151_0656"
    INDEX 01 02:25:35
  TRACK 72 AUDIO
    TITLE "0:"
    INDEX 01 02:28:41
  TRACK 73 AUDIO
    TITLE "2:cjc151_0657"
    INDEX 01 02:30:21
  TRACK 74 AUDIO
    TITLE "0:"
    INDEX 01 02:31:38
  TRACK 75 AUDIO
    TITLE "3:cjc151_0658"
    INDEX 01 02:33:19
  TRACK 76 AUDIO
    TITLE "0:"
    INDEX 01 02:36:47
  TRACK 77 AUDIO
    TITLE "2:cjc151_0659"
    INDEX 01 02:38:26
  TRACK 78 AUDIO
    TITLE "0:"
    INDEX 01 02:39:45
  TRACK 79 AUDIO
    TITLE "3:cjc151_0660"
    INDEX 01 02:41:22
  TRACK 80 AUDIO
    TITLE "0:"
    INDEX 01 02:44:60
  TRACK 81 AUDIO
    TITLE "2:cjc151_0661"
    INDEX 01 02:46:39
  TRACK 82 AUDIO
    TITLE "0:"
    INDEX 01 02:47:70
  TRACK 83 AUDIO
    TITLE "3:cjc151_0662"
    INDEX 01 02:49:51
  TRACK 84 AUDIO
    TITLE "0:"
    INDEX 01 02:53:04
  TRACK 85 AUDIO
    TITLE "2:cjc151_0663"
    INDEX 01 02:54:58
  TRACK 86 AUDIO
    TITLE "0:"
    INDEX 01 02:58:15
  TRACK 87 AUDIO
    TITLE "3:cjc151_0664"
    INDEX 01 02:59:67
  TRACK 88 AUDIO
    TITLE "0:"
    INDEX 01 03:04:47
